<?xml version="1.0" encoding="UTF-8" standalone="no"?>
<svg
   width="32"
   height="32"
   viewBox="0 0 32 32"
   version="1.1"
   id="svg10"
   sodipodi:docname="view.svg"
   xml:space="preserve"
   inkscape:version="1.3.1 (9b9bdc1480, 2023-11-25, custom)"
   xmlns:inkscape="http://www.inkscape.org/namespaces/inkscape"
   xmlns:sodipodi="http://sodipodi.sourceforge.net/DTD/sodipodi-0.dtd"
   xmlns="http://www.w3.org/2000/svg"
   xmlns:svg="http://www.w3.org/2000/svg"><defs
     id="defs10" /><sodipodi:namedview
     id="namedview10"
     pagecolor="#ffffff"
     bordercolor="#000000"
     borderopacity="0.25"
     inkscape:showpageshadow="2"
     inkscape:pageopacity="0.0"
     inkscape:pagecheckerboard="0"
     inkscape:deskcolor="#d1d1d1"
     showgrid="false"
     inkscape:zoom="9.8773979"
     inkscape:cx="-3.1384784"
     inkscape:cy="26.423963"
     inkscape:window-width="1850"
     inkscape:window-height="1136"
     inkscape:window-x="70"
     inkscape:window-y="27"
     inkscape:window-maximized="1"
     inkscape:current-layer="svg10" /><rect
     style="fill:none;stroke:#ffffff;stroke-width:1.853;stroke-dasharray:none;stroke-opacity:1"
     id="rect11"
     width="24.282604"
     height="6.1604095"
     x="3.7630022"
     y="23.87932" /><rect
     style="fill:none;stroke:#ffffff;stroke-width:1.92352796;stroke-dasharray:none;stroke-opacity:1"
     id="rect12"
     width="18.11899"
     height="6.8641033"
     x="10.346321"
     y="2.078048"
     ry="3.5038776" /><path
     id="rect12-3"
     style="fill:none;stroke:#ffffff;stroke-width:2.02440004;stroke-dasharray:none"
     transform="rotate(-46.461657)"
     d="m 12.537764,25.231359 c -0.280035,0.06535 -0.388352,0.107026 -0.689384,0.107026 l -3.9626851,0 H 0.44794846 c -2.06630066,0 -3.72978446,-1.629384 -3.72978446,-3.653328 0,-2.023943 1.6634838,-3.653327 3.72978446,-3.653327 H 4.7204729"
     sodipodi:nodetypes="cscsssc" /><rect
     style="fill:none;stroke:#ffffff;stroke-width:1.45883274;stroke-dasharray:none;stroke-opacity:1"
     id="rect14"
     width="2.3464098"
     height="1.3044635"
     x="8.1359425"
     y="4.7786369" /><path
     style="fill:none;stroke:#ffffff;stroke-width:1.905;stroke-dasharray:none;stroke-opacity:1"
     id="path14"
     sodipodi:type="arc"
     sodipodi:cx="-6.239418"
     sodipodi:cy="2.9319324"
     sodipodi:rx="3.5952821"
     sodipodi:ry="3.5952821"
     sodipodi:start="5.7466114"
     sodipodi:end="4.1003232"
     sodipodi:open="true"
     sodipodi:arc-type="arc"
     d="M -3.1493985,1.0940444 A 3.5952821,3.5952821 0 0 1 -4.324363,5.9747301 3.5952821,3.5952821 0 0 1 -9.233067,4.922942 3.5952821,3.5952821 0 0 1 -8.3051213,-0.01067237"
     transform="rotate(-102.91269)" /><path
     style="fill:none;stroke:#ffffff;stroke-width:1.85420394;stroke-dasharray:none;stroke-opacity:1"
     d="m 12.890043,16.496162 0.0041,7.766508 v 0"
     id="path16" /><path
     style="fill:none;stroke:#ffffff;stroke-width:1.87486796;stroke-dasharray:none;stroke-opacity:1"
     d="m 19.123476,16.824356 -0.01233,6.897205 v 0 0"
     id="path17" /><path
     style="fill:#ffffff;fill-opacity:1;stroke:#ffffff;stroke-width:0.680675;stroke-dasharray:none;stroke-opacity:1"
     id="path18"
     sodipodi:type="arc"
     sodipodi:cx="24.83148"
     sodipodi:cy="5.5180383"
     sodipodi:rx="1.4787424"
     sodipodi:ry="1.4787424"
     sodipodi:start="4.104275"
     sodipodi:end="4.1003232"
     sodipodi:open="true"
     sodipodi:arc-type="arc"
     d="M 23.986644,4.3043945 A 1.4787424,1.4787424 0 0 1 26.044289,4.6720037 1.4787424,1.4787424 0 0 1 25.678712,6.7300104 1.4787424,1.4787424 0 0 1 23.620346,6.3664675 1.4787424,1.4787424 0 0 1 23.981855,4.3077426" /><path
     style="fill:#ffffff;fill-opacity:1;stroke:#ffffff;stroke-width:0.680675;stroke-dasharray:none;stroke-opacity:1"
     id="path18-3"
     sodipodi:type="arc"
     sodipodi:cx="24.83148"
     sodipodi:cy="5.5180383"
     sodipodi:rx="1.4787424"
     sodipodi:ry="1.4787424"
     sodipodi:start="4.104275"
     sodipodi:end="4.1003232"
     sodipodi:open="true"
     sodipodi:arc-type="arc"
     d="M 23.986644,4.3043945 A 1.4787424,1.4787424 0 0 1 26.044289,4.6720037 1.4787424,1.4787424 0 0 1 25.678712,6.7300104 1.4787424,1.4787424 0 0 1 23.620346,6.3664675 1.4787424,1.4787424 0 0 1 23.981855,4.3077426" /><path
     style="fill:#ffffff;fill-opacity:1;stroke:#ffffff;stroke-width:0.680675;stroke-dasharray:none;stroke-opacity:1"
     id="path18-5"
     sodipodi:type="arc"
     sodipodi:cx="15.983809"
     sodipodi:cy="14.577285"
     sodipodi:rx="1.4787424"
     sodipodi:ry="1.4787424"
     sodipodi:start="4.104275"
     sodipodi:end="4.1003232"
     sodipodi:open="true"
     sodipodi:arc-type="arc"
     d="m 15.138974,13.363641 a 1.4787424,1.4787424 0 0 1 2.057644,0.367609 1.4787424,1.4787424 0 0 1 -0.365576,2.058007 1.4787424,1.4787424 0 0 1 -2.058367,-0.363543 1.4787424,1.4787424 0 0 1 0.361509,-2.058725" /></svg>
